<svg width="36" height="42" viewBox="0 0 36 42" fill="none" xmlns="http://www.w3.org/2000/svg">
<path d="M29.6617 40.3149C27.4002 42.5313 24.9311 42.1813 22.5542 41.1315C20.0389 40.0583 17.7313 40.0116 15.0775 41.1315C11.7545 42.578 10.0007 42.158 8.01613 40.3149C-3.2451 28.5797 -1.58361 10.7086 11.2007 10.0554C14.316 10.2187 16.4851 11.7818 18.3082 11.9218C21.0312 11.3619 23.6388 9.7521 26.5464 9.96208C30.0309 10.242 32.6616 11.6419 34.3923 14.1615C27.1925 18.5243 28.9002 28.1131 35.5 30.7961C34.1847 34.2957 32.477 37.7719 29.6386 40.3382L29.6617 40.3149ZM18.0774 9.91541C17.7313 4.71274 21.9081 0.419947 26.7079 0C27.3771 6.01924 21.3081 10.4987 18.0774 9.91541Z" fill="black"/>
</svg>
