<svg width="24" height="18" viewBox="0 0 24 18" fill="none" xmlns="http://www.w3.org/2000/svg">
<path d="M9.40108 17.05C9.16359 17.05 8.92611 16.9625 8.73863 16.7749L1.15174 9.18606C0.789265 8.82349 0.789265 8.22338 1.15174 7.86082L8.73863 0.271925C9.1011 -0.0906416 9.70105 -0.0906416 10.0635 0.271925C10.426 0.634491 10.426 1.2346 10.0635 1.59717L3.13908 8.52344L10.0635 15.4497C10.426 15.8123 10.426 16.4124 10.0635 16.7749C9.88854 16.9625 9.63856 17.05 9.40108 17.05Z" fill="black"/>
<path d="M23.0626 9.46128H2.02678C1.51432 9.46128 1.08936 9.0362 1.08936 8.52361C1.08936 8.01102 1.51432 7.58594 2.02678 7.58594H23.0626C23.5751 7.58594 24 8.01102 24 8.52361C24 9.0362 23.5751 9.46128 23.0626 9.46128Z" fill="black"/>
</svg>
