<svg width="42" height="38" viewBox="0 0 42 38" fill="none" xmlns="http://www.w3.org/2000/svg">
<path d="M41.0554 19C41.0554 8.50666 32.0762 0 20.9999 0C9.92358 0 0.944336 8.50666 0.944336 19C0.944336 28.4834 8.2784 36.3439 17.8662 37.7692V24.4922H12.774V19H17.8662V14.8141C17.8662 10.0522 20.8604 7.42188 25.4416 7.42188C27.6358 7.42188 29.9309 7.79297 29.9309 7.79297V12.4688H27.402C24.9106 12.4688 24.1336 13.9334 24.1336 15.436V19H29.6959L28.8067 24.4922H24.1336V37.7692C33.7214 36.3439 41.0554 28.4835 41.0554 19Z" fill="#1877F2"/>
<path d="M28.8066 24.4922L29.6958 19H24.1335V15.436C24.1335 13.9332 24.9105 12.4688 27.4019 12.4688H29.9308V7.79297C29.9308 7.79297 27.6357 7.42188 25.4414 7.42188C20.8604 7.42188 17.8662 10.0522 17.8662 14.8141V19H12.7739V24.4922H17.8662V37.7692C18.9028 37.9231 19.9505 38.0002 20.9998 38C22.0491 38.0002 23.0969 37.9231 24.1335 37.7692V24.4922H28.8066Z" fill="#FEFEFE"/>
</svg>
