<svg width="38" height="38" viewBox="0 0 38 38" fill="none" xmlns="http://www.w3.org/2000/svg">
<path d="M37.6304 15.2788H36.1V15.2H19V22.8H29.7379C28.1713 27.2241 23.9618 30.4 19 30.4C12.7043 30.4 7.6 25.2956 7.6 19C7.6 12.7043 12.7043 7.6 19 7.6C21.906 7.6 24.5499 8.6963 26.563 10.487L31.9371 5.1129C28.5437 1.95035 24.0046 0 19 0C8.50725 0 0 8.50725 0 19C0 29.4927 8.50725 38 19 38C29.4927 38 38 29.4927 38 19C38 17.726 37.8689 16.4825 37.6304 15.2788Z" fill="#FFC107"/>
<path d="M2.19043 10.1564L8.43288 14.7345C10.122 10.5526 14.2127 7.6 18.9997 7.6C21.9058 7.6 24.5496 8.6963 26.5627 10.487L31.9368 5.1129C28.5434 1.95035 24.0043 0 18.9997 0C11.7018 0 5.37293 4.12015 2.19043 10.1564Z" fill="#FF3D00"/>
<path d="M19.0002 38.0003C23.9079 38.0003 28.3672 36.1221 31.7388 33.0679L25.8583 28.0918C23.8869 29.5919 21.4774 30.4029 19.0002 30.4003C14.0583 30.4003 9.86215 27.2491 8.28135 22.8516L2.08545 27.6253C5.22995 33.7785 11.6159 38.0003 19.0002 38.0003Z" fill="#4CAF50"/>
<path d="M37.6304 15.279H36.1V15.2002H19V22.8002H29.7379C28.9885 24.9058 27.6387 26.7457 25.8552 28.0926L25.858 28.0907L31.7386 33.0668C31.3225 33.4449 38 28.5002 38 19.0002C38 17.7262 37.8689 16.4827 37.6304 15.279Z" fill="#1976D2"/>
</svg>
